<svg width="32" height="28" viewBox="0 0 32 28" fill="none" xmlns="http://www.w3.org/2000/svg">
<path d="M17.7778 7.77778V1.55556C17.7778 1.11482 17.9484 0.745116 18.2898 0.44645C18.6311 0.147783 19.053 -0.00103165 19.5556 5.38255e-06H30.2222C30.7259 5.38255e-06 31.1484 0.149339 31.4898 0.448005C31.8311 0.746672 32.0012 1.11586 32 1.55556V7.77778C32 8.21852 31.8293 8.58822 31.488 8.88689C31.1467 9.18556 30.7247 9.33437 30.2222 9.33333H19.5556C19.0519 9.33333 18.6293 9.184 18.288 8.88533C17.9467 8.58667 17.7766 8.21748 17.7778 7.77778ZM6.15148e-06 14V1.55556C6.15148e-06 1.11482 0.170673 0.745116 0.512006 0.44645C0.853339 0.147783 1.27526 -0.00103165 1.77778 5.38255e-06H12.4444C12.9481 5.38255e-06 13.3707 0.149339 13.712 0.448005C14.0533 0.746672 14.2234 1.11586 14.2222 1.55556V14C14.2222 14.4407 14.0516 14.8104 13.7102 15.1091C13.3689 15.4078 12.947 15.5566 12.4444 15.5556H1.77778C1.27408 15.5556 0.851561 15.4062 0.510228 15.1076C0.168895 14.8089 -0.00117903 14.4397 6.15148e-06 14ZM17.7778 26.4444V14C17.7778 13.5593 17.9484 13.1896 18.2898 12.8909C18.6311 12.5922 19.053 12.4434 19.5556 12.4444H30.2222C30.7259 12.4444 31.1484 12.5938 31.4898 12.8924C31.8311 13.1911 32.0012 13.5603 32 14V26.4444C32 26.8852 31.8293 27.2549 31.488 27.5535C31.1467 27.8522 30.7247 28.001 30.2222 28H19.5556C19.0519 28 18.6293 27.8507 18.288 27.552C17.9467 27.2533 17.7766 26.8841 17.7778 26.4444ZM6.15148e-06 26.4444V20.2222C6.15148e-06 19.7815 0.170673 19.4118 0.512006 19.1131C0.853339 18.8144 1.27526 18.6656 1.77778 18.6667H12.4444C12.9481 18.6667 13.3707 18.816 13.712 19.1147C14.0533 19.4133 14.2234 19.7825 14.2222 20.2222V26.4444C14.2222 26.8852 14.0516 27.2549 13.7102 27.5535C13.3689 27.8522 12.947 28.001 12.4444 28H1.77778C1.27408 28 0.851561 27.8507 0.510228 27.552C0.168895 27.2533 -0.00117903 26.8841 6.15148e-06 26.4444Z" fill="#2E3797"/>
</svg>
