<svg width="29" height="32" viewBox="0 0 29 32" fill="none" xmlns="http://www.w3.org/2000/svg">
<path d="M14.5003 32C16.3579 32 17.8609 30.6753 17.8609 29.0381H11.1397C11.1397 30.6753 12.6427 32 14.5003 32ZM28.4999 24.9898L26.3214 23.0698V14.1395C26.3214 9.15349 22.336 4.98605 17.0334 3.97395V2.23256C17.0334 0.997209 15.9019 0 14.5003 0C13.0986 0 11.9672 0.997209 11.9672 2.23256V3.97395C6.66456 4.98605 2.67914 9.15349 2.67914 14.1395V23.0698L0.500672 24.9898C-0.563232 25.9274 0.179812 27.5349 1.68279 27.5349H27.3009C28.8208 27.5349 29.5638 25.9274 28.4999 24.9898ZM16.189 21.5814H12.8116V18.6047L11.4775 22.3256L16.189 21.5814ZM14.9262 14.1395C14.9262 14.9581 15.4291 15.6279 14.5003 15.6279C13.5715 15.6279 17.0334 11.2372 17.0334 10.4186L12.8116 11.1628C12.8116 10.3442 13.9261 17.1163 14.8549 17.1163C15.7837 17.1163 16.189 10.3442 16.189 11.1628L14.9262 14.1395Z" fill="#2E3797"/>
</svg>
